HIERARCHY
ROOT root
{
	OFFSET	0	13.1	24.9
	CHANNELS 6  Xposition Yposition Zposition Xrotation Yrotation Zrotation
	JOINT spine_1
	{
		OFFSET	0	9.99999	0
		CHANNELS 3  Xrotation Yrotation Zrotation
		JOINT spine_2
		{
			OFFSET	0	112	-10
			CHANNELS 3  Xrotation Yrotation Zrotation
			JOINT spine_3
			{
				OFFSET	0	206.5	19.3
				CHANNELS 3  Xrotation Yrotation Zrotation
				JOINT spine_4
				{
					OFFSET	0	110.4	14.6
					CHANNELS 3  Xrotation Yrotation Zrotation
					JOINT neck_1
					{
						OFFSET	0	71.8	-50.3
						CHANNELS 3  Xrotation Yrotation Zrotation
						JOINT neck_2
						{
							OFFSET	0	86.2	-25.8
							CHANNELS 3  Xrotation Yrotation Zrotation
							JOINT head_ee
							{
								OFFSET	0	179.8	-8.7
								CHANNELS 3  Xrotation Yrotation Zrotation
								End Site
								{
									OFFSET	1	0	0
								}
							}
						}
					}
					JOINT left_clavicle
					{
						OFFSET	-43.2	22.4	-70.8
						CHANNELS 3  Xrotation Yrotation Zrotation
						JOINT left_shoulder
						{
							OFFSET	-93.9	-5.79999	48.7
							CHANNELS 3  Xrotation Yrotation Zrotation
							JOINT left_elbow
							{
								OFFSET	-291.4	-30.8	15.2
								CHANNELS 3  Xrotation Yrotation Zrotation
								JOINT left_lowarm_twist
								{
									OFFSET	-110.7	-3.89999	13.6
									CHANNELS 3  Xrotation Yrotation Zrotation
									JOINT left_hand
									{
										OFFSET	-110.7	-3.89999	13.6
										CHANNELS 3  Xrotation Yrotation Zrotation
										JOINT left_ee
										{
											OFFSET	-80.8	-5.10001	12.1
											CHANNELS 3  Xrotation Yrotation Zrotation
											End Site
											{
												OFFSET	1	0	0
											}
										}
									}
								}
							}
						}
					}
					JOINT right_clavicle
					{
						OFFSET	43.2	22.4	-70.8
						CHANNELS 3  Xrotation Yrotation Zrotation
						JOINT right_shoulder
						{
							OFFSET	93.9	-5.79999	48.7
							CHANNELS 3  Xrotation Yrotation Zrotation
							JOINT right_elbow
							{
								OFFSET	291.4	-30.8	15.2
								CHANNELS 3  Xrotation Yrotation Zrotation
								JOINT right_lowarm_twist
								{
									OFFSET	110.7	-3.89999	13.6
									CHANNELS 3  Xrotation Yrotation Zrotation
									JOINT right_hand
									{
										OFFSET	110.7	-3.89999	13.6
										CHANNELS 3  Xrotation Yrotation Zrotation
										JOINT right_ee
										{
											OFFSET	80.8	-5.10001	12.1
											CHANNELS 3  Xrotation Yrotation Zrotation
											End Site
											{
												OFFSET	1	0	0
											}
										}
									}
								}
							}
						}
					}
				}
			}
		}
	}
	JOINT left_hip
	{
		OFFSET	-82.8	-127.5	0.300001
		CHANNELS 3  Xrotation Yrotation Zrotation
		JOINT left_knee
		{
			OFFSET	-28.2	-396.7	2.2
			CHANNELS 3  Xrotation Yrotation Zrotation
			JOINT left_ankle
			{
				OFFSET	-11.7	-411.3	35.4
				CHANNELS 3  Xrotation Yrotation Zrotation
				JOINT left_toes
				{
					OFFSET	0	-60	-88.6
					CHANNELS 3  Xrotation Yrotation Zrotation
					JOINT left_foot_ee
					{
						OFFSET	-22.5	-16.5	-42.2
						CHANNELS 3  Xrotation Yrotation Zrotation
						End Site
						{
							OFFSET	1	0	0
						}
					}
				}
			}
		}
	}
	JOINT right_hip
	{
		OFFSET	82.8	-127.5	0.300001
		CHANNELS 3  Xrotation Yrotation Zrotation
		JOINT right_knee
		{
			OFFSET	28.2	-396.7	2.2
			CHANNELS 3  Xrotation Yrotation Zrotation
			JOINT right_ankle
			{
				OFFSET	11.7	-411.3	35.4
				CHANNELS 3  Xrotation Yrotation Zrotation
				JOINT right_toes
				{
					OFFSET	0	-60	-88.6
					CHANNELS 3  Xrotation Yrotation Zrotation
					JOINT right_foot_ee
					{
						OFFSET	22.5	-16.5	-42.2
						CHANNELS 3  Xrotation Yrotation Zrotation
						End Site
						{
							OFFSET	1	0	0
						}
					}
				}
			}
		}
	}
}
MOTION
Frames: 14
Frame Time: 0.02
508.088166402 709.599 -1341.02070048 -163.846768501 -44.3230223584 -166.47537022 6.12788 0.0562852 0.468402 6.128 0.0263659 0.471034 6.12807 -0.0230532 0.471208 6.12777 0.0516538 0.468935 -17.9722 4.89988 2.25368 -18.0369 8.20184 3.97884 -0.0 0.0 -0.0 7.50871 0.731799 14.5965 41.5547 63.5127 29.3602 0.171842 -4.86573 0.0073011 85.1926 -4.4496 -8.87497 -2.5853 -8.03975 -21.3515 -0.0 0.0 -0.0 11.9779 24.2504 -23.5178 7.90784 -52.1924 -56.3947 0.242416 6.84779 -0.0145037 18.1429 -0.278586 2.29119 3.86434 -3.98383 -28.3814 0.0 0.0 0.0 11.7854 38.8615 6.01652 -8.38178 0.25329 1.26027 41.4069 11.5833 -5.0123 -27.246 0.0 0.0 -0.0 0.0 -0.0 28.9329 17.7314 -1.38253 -14.9901 -0.321662 -2.27138 20.0288 -2.61684 2.7427 31.0258 -0.0 -0.0 0.0 0.0 0.0 
508.928724281 711.093 -1338.59566234 -163.549862833 -42.965302331 -166.664734976 5.84772 0.100654 0.592978 5.84792 0.0627178 0.598181 5.84836 -0.00313628 0.601451 5.84787 0.0918894 0.594399 -17.9239 4.22563 1.08551 -17.9876 7.53705 2.62749 -0.0 0.0 -0.0 7.64202 -1.27098 14.8801 49.1854 64.5841 24.7671 0.188667 -5.33949 0.00879743 84.6042 -4.37919 -8.84772 -1.81555 -5.42533 -14.7007 -0.0 0.0 -0.0 12.8781 26.9841 -25.2769 13.2574 -54.403 -50.9687 0.190107 5.38001 -0.008932 20.0035 -0.265858 2.52849 3.85955 -2.17577 -27.6527 0.0 0.0 0.0 11.8991 39.3213 6.10054 -6.47618 0.211958 0.970775 41.5185 11.9634 -5.02587 -18.362 0.0 0.0 -0.0 0.0 -0.0 31.9954 23.6036 -2.69708 -17.3062 -0.31798 -2.62668 25.4117 -2.59745 3.38656 23.538 -0.0 -0.0 0.0 0.0 0.0 
513.64767684 711.093 -1334.31542318 -164.063848093 -40.9985169861 -167.433023845 5.84772 0.100654 0.592978 5.84792 0.0627178 0.598181 5.84836 -0.00313628 0.601451 5.84787 0.0918894 0.594399 -17.9239 4.22563 1.08551 -17.9876 7.53705 2.62749 -0.0 0.0 -0.0 7.64202 -1.27098 14.8801 49.1854 64.5841 24.7671 0.188667 -5.33949 0.00879743 84.6042 -4.37919 -8.84772 -1.81555 -5.42533 -14.7007 -0.0 0.0 -0.0 12.8781 26.9841 -25.2769 13.2574 -54.403 -50.9687 0.190107 5.38001 -0.008932 20.0035 -0.265858 2.52849 3.85955 -2.17577 -27.6527 0.0 0.0 0.0 11.8991 39.3213 6.10054 -6.47618 0.211958 0.970775 41.5185 11.9634 -5.02587 -18.362 0.0 0.0 -0.0 0.0 -0.0 31.9954 23.6036 -2.69708 -17.3062 -0.31798 -2.62668 25.4117 -2.59745 3.38656 23.538 -0.0 -0.0 0.0 0.0 0.0 
520.089961626 708.609 -1328.14323011 -164.510259986 -38.1587918499 -167.314803292 5.56622 -0.00831536 0.454668 5.56633 -0.0372299 0.453217 5.56593 -0.0888181 0.445986 5.56565 -0.017269 0.454416 -17.6554 5.26175 -1.02574 -17.7868 10.6773 1.03698 -0.0 0.0 -0.0 8.61803 -3.73298 16.8947 47.8966 59.2203 32.4078 0.271536 -7.66111 0.0181808 85.2487 -4.45632 -8.87753 -2.28562 0.674808 -15.1313 -0.0 0.0 -0.0 11.7969 27.4085 -22.7533 15.5858 -57.2787 -51.7315 0.178818 5.06223 -0.00790467 23.0032 -0.229137 2.90984 3.45483 -0.112729 -23.8262 0.0 0.0 0.0 13.0299 40.0552 5.12041 -6.16879 0.204389 0.924209 41.6366 13.7793 -5.05853 -8.96278 0.0 0.0 -0.0 0.0 -0.0 35.5499 27.8775 -5.25338 -15.8479 -0.321973 -2.40298 25.1976 -5.58365 3.35413 18.069 -0.0 -0.0 0.0 0.0 0.0 
521.837678157 710.925 -1319.7938957 -164.209166997 -36.8358931717 -166.920440319 5.80073 0.204006 0.391084 5.8008 0.178707 0.403273 5.80197 0.133154 0.420518 5.80178 0.197895 0.394212 -17.8444 6.11728 -2.56402 -18.0365 13.1585 -0.0442602 -0.0 0.0 -0.0 9.5339 -7.26741 18.842 47.6667 59.4462 35.6511 0.449109 -12.5428 0.0493557 85.1722 -4.44716 -8.87404 -1.47527 0.327742 -9.75272 -0.0 0.0 -0.0 12.4622 27.3062 -24.2825 13.6532 -56.7501 -50.9933 0.183814 5.20292 -0.00835168 21.6345 -0.24837 2.73607 2.9997 4.74322 -18.5247 0.0 0.0 0.0 13.23 41.3949 4.27241 -5.42703 0.185097 0.812012 41.3345 13.4463 -5.02804 -8.36599 0.0 0.0 -0.0 0.0 -0.0 38.3286 28.2839 -6.65842 -15.267 -0.321978 -2.31386 20.3676 -4.03856 2.78009 18.9813 -0.0 -0.0 0.0 0.0 0.0 
550.142542789 708.084 -1310.37637706 -163.893346581 -32.7514429979 -166.992587482 6.13429 0.407434 0.31681 6.13426 0.386449 0.342094 6.13658 0.348607 0.380584 6.13661 0.404338 0.320752 -17.8935 3.7757 -5.20839 -17.9422 10.0968 -3.42583 -0.0 0.0 -0.0 8.42299 -4.92683 16.4916 42.3067 59.0309 47.4515 0.532567 -14.7791 0.0690702 83.1783 -4.20975 -8.77868 -2.59832 9.90671 -12.6562 -0.0 0.0 -0.0 12.052 25.554 -23.5497 10.6848 -58.1553 -50.6201 0.207865 5.87918 -0.010674 21.1456 -0.254231 2.6739 2.50131 10.8387 -12.3586 0.0 0.0 0.0 11.7977 44.416 5.74652 -4.33031 0.153913 0.646592 41.4241 14.2134 -5.04641 0.367312 -0.0 -0.0 -0.0 0.0 -0.0 42.7175 29.1831 -7.92061 -14.8991 -0.321513 -2.25741 10.1053 -5.37538 1.43722 20.3379 -0.0 -0.0 0.0 0.0 0.0 
555.29806101 709.519 -1302.32598426 -163.775278815 -32.4566773576 -166.915310751 6.12436 0.445254 0.377272 6.12434 0.420345 0.40484 6.1273 0.375695 0.446586 6.1273 0.441509 0.381648 -16.311 3.54447 -4.98293 -16.337 9.64619 -3.42829 -0.0 0.0 -0.0 7.81836 -4.18321 15.2388 39.6494 57.2064 51.0878 0.497104 -13.8341 0.0603066 83.6506 -4.26568 -8.80201 -2.47644 20.9123 -6.19422 -0.0 0.0 -0.0 12.0502 24.9672 -23.6089 7.68898 -58.8509 -52.9692 0.236788 6.69027 -0.0138404 21.3251 -0.252141 2.69673 1.8217 15.0371 -5.83919 0.0 0.0 0.0 12.0759 42.5752 5.1285 -5.56995 0.188927 0.83361 41.6348 15.5593 -5.08567 4.19194 -0.0 -0.0 -0.0 0.0 -0.0 44.8536 30.2058 -9.75638 -15.0071 -0.321687 -2.27398 2.58953 -11.5976 0.377121 23.1637 -0.0 -0.0 0.0 0.0 0.0 
583.503680292 710.809 -1281.76043095 -164.062346356 -32.1592521144 -168.034961514 6.35452 0.145647 0.628685 6.35474 0.105348 0.636678 6.35563 0.0407304 0.644048 6.35508 0.141933 0.629534 -17.7009 2.99795 -3.02069 -17.741 7.41861 -1.69043 -0.0 0.0 -0.0 7.58682 -1.06017 14.7678 34.6569 53.6467 57.5788 0.621809 -17.1203 0.0935985 85.0788 -4.43596 -8.86976 -3.6521 28.9033 -8.39699 -0.0 0.0 -0.0 11.8063 16.9553 -23.6731 11.2514 -57.6923 -45.0782 0.19823 5.60845 -0.00970966 21.5157 -0.249843 2.72096 0.722597 7.51556 -1.68892 0.0 0.0 0.0 10.5231 43.2014 5.40867 -10.0236 0.281161 1.51066 41.8953 19.9472 -5.19868 16.925 -0.0 -0.0 -0.0 0.0 -0.0 50.3825 28.4821 -11.0737 -26.8367 -0.152172 -4.07806 -3.38405 -14.4912 -0.501635 27.9576 -0.0 -0.0 0.0 0.0 0.0 
590.082434271 710.567 -1277.97443364 -164.319721081 -30.7769794993 -169.13887617 6.55479 0.236725 0.672633 6.55502 0.193445 0.686333 6.55702 0.125856 0.701878 6.55641 0.235123 0.673195 -18.4318 4.16974 -2.84218 -18.5257 9.54517 -1.01647 -0.0 0.0 -0.0 7.32868 -0.230163 14.2464 33.6124 51.3136 60.6728 0.688898 -18.8428 0.114312 84.8335 -4.40661 -8.85843 -3.48553 28.9793 -7.44716 -0.0 0.0 -0.0 12.1753 18.6448 -24.4261 5.53942 -57.022 -48.8034 0.200234 5.66479 -0.0099066 19.5118 -0.269971 2.46581 0.676829 11.7295 0.421864 0.0 0.0 0.0 10.0108 44.3661 5.80485 -12.107 0.30618 1.82933 41.9812 20.1722 -5.21183 20.7114 -0.0 -0.0 -0.0 0.0 -0.0 51.6515 27.8504 -11.5012 -26.3017 -0.16786 -3.99746 -10.2002 -17.7655 -1.54038 28.5347 -0.0 -0.0 0.0 0.0 0.0 
601.93850118 712.577 -1272.1569769 -164.833782558 -30.0133302085 -170.439786273 6.50294 0.348703 0.793919 6.50324 0.297479 0.814497 6.50705 0.216228 0.839727 6.50623 0.34613 0.795044 -19.7228 5.51896 -3.13692 -19.9111 12.2425 -0.616785 -0.0 0.0 -0.0 7.39748 2.15713 14.3573 36.168 48.0964 61.0837 0.751899 -20.4287 0.135484 85.1784 -4.4479 -8.87433 -2.57359 28.9876 -2.53258 -0.0 0.0 -0.0 12.6754 18.4428 -25.5928 -1.79667 -55.7992 -52.0473 0.323845 9.11412 -0.0258117 17.7192 -0.280406 2.2371 0.627122 15.031 2.17991 0.0 0.0 0.0 8.27884 47.2966 6.72929 -13.9616 0.318691 2.1136 42.3262 24.3137 -5.36247 26.1831 -0.0 -0.0 -0.0 0.0 -0.0 52.992 26.9128 -11.8002 -20.608 -0.287915 -3.13233 -23.3415 -23.0478 -3.62478 21.1284 -0.0 -0.0 0.0 0.0 0.0 
608.370820947 712.578 -1270.66442755 -164.250209692 -30.689223035 -169.683995966 6.6504 0.297802 0.688385 6.65062 0.253396 0.705939 6.65342 0.184848 0.726904 6.6528 0.297326 0.688591 -18.4567 6.25651 -3.43162 -18.6728 13.8721 -0.725192 -0.0 0.0 -0.0 6.51889 3.38052 12.6438 36.7393 45.7049 63.2549 0.644008 -17.694 0.10024 85.2396 -4.45524 -8.87712 -2.15745 29.313 -0.143485 -0.0 0.0 -0.0 11.9044 15.5839 -23.9578 -1.14059 -53.7991 -50.9194 0.264806 7.47341 -0.0172947 18.2203 -0.27821 2.30107 0.988042 12.2817 -1.43727 0.0 0.0 0.0 6.51087 46.7495 7.91628 -12.3717 0.308529 1.86988 42.7205 23.0879 -5.35859 27.0214 -0.0 -0.0 -0.0 0.0 -0.0 53.0963 26.5849 -11.8357 -16.5614 -0.32073 -2.51244 -23.4067 -21.5853 -3.61245 18.9171 -0.0 -0.0 0.0 0.0 0.0 
622.742531826 709.141 -1265.23550871 -164.332226876 -31.2781281664 -170.566777908 6.57542 0.256988 0.846708 6.57579 0.202591 0.861344 6.57832 0.118288 0.876905 6.57734 0.255289 0.847222 -19.5735 8.21612 -2.23963 -19.9745 16.9794 1.36282 -0.0 0.0 -0.0 6.96403 1.71499 13.5152 32.4589 40.3093 64.2354 0.983362 -25.9715 0.226775 85.1716 -4.44709 -8.87401 -0.393106 29.7079 9.45781 -0.0 0.0 -0.0 11.7924 14.404 -23.7436 -2.20057 -56.5156 -50.7904 0.418771 11.7198 -0.0429799 16.7169 -0.283121 2.10911 0.414856 12.8375 2.66356 0.0 0.0 0.0 5.39357 47.864 8.21206 -15.7295 0.322047 2.38482 42.4174 23.5606 -5.34632 32.1206 -0.0 -0.0 -0.0 0.0 -0.0 53.1605 26.5925 -12.1547 -14.5362 -0.3207 -2.20174 -14.6836 -19.127 -2.23719 14.1154 -0.0 -0.0 0.0 0.0 0.0 
632.838158634 705.886 -1262.10521846 -163.42037486 -33.4936347603 -169.906813699 6.47559 0.256712 0.958237 6.47608 0.19522 0.972628 6.47874 0.0984664 0.987126 6.47747 0.253122 0.959191 -20.6172 10.2203 -2.49947 -21.3001 20.9366 2.22202 -0.0 0.0 -0.0 5.10078 0.245881 9.86482 27.0574 29.718 69.0815 1.34121 -33.5982 0.404928 83.7582 -4.27845 -8.80727 0.806569 29.9265 16.0966 -0.0 0.0 -0.0 11.9396 10.573 -24.1399 1.07268 -59.1648 -45.1662 0.557007 15.4257 -0.0754379 13.3065 -0.275585 1.67365 0.801859 14.5603 0.803005 0.0 0.0 0.0 4.24286 48.2418 8.03659 -16.4169 0.321092 2.49028 42.136 22.2386 -5.28113 34.9405 -0.0 -0.0 -0.0 0.0 -0.0 50.6003 26.2762 -11.7555 -4.41063 -0.156304 -0.658686 -11.6456 -11.4644 -1.74177 9.4518 -0.0 -0.0 0.0 0.0 0.0 
632.882214483 705.886 -1261.92053511 -163.428646364 -33.4516055956 -169.921810846 6.47559 0.256712 0.958237 6.47608 0.19522 0.972628 6.47874 0.0984664 0.987126 6.47747 0.253122 0.959191 -20.6172 10.2203 -2.49947 -21.3001 20.9366 2.22202 -0.0 0.0 -0.0 5.10078 0.245881 9.86482 27.0574 29.718 69.0815 1.34121 -33.5982 0.404928 83.7582 -4.27845 -8.80727 0.806569 29.9265 16.0966 -0.0 0.0 -0.0 11.9396 10.573 -24.1399 1.07268 -59.1648 -45.1662 0.557007 15.4257 -0.0754379 13.3065 -0.275585 1.67365 0.801859 14.5603 0.803005 0.0 0.0 0.0 4.24286 48.2418 8.03659 -16.4169 0.321092 2.49028 42.136 22.2386 -5.28113 34.9405 -0.0 -0.0 -0.0 0.0 -0.0 50.6003 26.2762 -11.7555 -4.41063 -0.156304 -0.658686 -11.6456 -11.4644 -1.74177 9.4518 -0.0 -0.0 0.0 0.0 0.0 
